HIERARCHY
ROOT Hips
{
	OFFSET 0.00000 0.00000 0.00000
	CHANNELS 6 Xposition Yposition Zposition Zrotation Yrotation Xrotation 
	JOINT LHipJoint
	{
		OFFSET 0 0 0
		CHANNELS 3 Zrotation Yrotation Xrotation
		JOINT LeftHip
		{
			OFFSET 1.75344 -1.53157 0.77399
			CHANNELS 3 Zrotation Yrotation Xrotation
			JOINT LeftKnee
			{
				OFFSET 2.25415 -6.19323 0.00000
				CHANNELS 3 Zrotation Yrotation Xrotation
				JOINT LeftAnkle
				{
					OFFSET 2.30342 -6.32861 0.00000
					CHANNELS 3 Zrotation Yrotation Xrotation
					JOINT LeftToe
					{
						OFFSET 0.10958 -0.30108 1.49206
						CHANNELS 3 Zrotation Yrotation Xrotation
						End Site
						{
							OFFSET 0.00000 -0.00000 0.77783
						}
					}
				}
			}
		}
	}
	JOINT RHipJoint
	{
		OFFSET 0 0 0
		CHANNELS 3 Zrotation Yrotation Xrotation
		JOINT RightHip
		{
			OFFSET -1.81912 -1.53156 0.77399
			CHANNELS 3 Zrotation Yrotation Xrotation
			JOINT RightKnee
			{
				OFFSET -2.22882 -6.12365 0.00000
				CHANNELS 3 Zrotation Yrotation Xrotation
				JOINT RightAnkle
				{
					OFFSET -2.21943 -6.09785 0.00000
					CHANNELS 3 Zrotation Yrotation Xrotation
					JOINT RightToe
					{
						OFFSET -0.18931 -0.52012 1.59379
						CHANNELS 3 Zrotation Yrotation Xrotation
						End Site
						{
							OFFSET -0.00000 -0.00000 0.84686
						}
					}
				}
			}
		}
	}
	JOINT lowerback
	{
		OFFSET 0 0 0
		CHANNELS 3 Zrotation Yrotation Xrotation
		JOINT Chest
		{
			OFFSET -0.00200 1.66634 -0.14248
			CHANNELS 3 Zrotation Yrotation Xrotation
			JOINT Chest2
			{
				OFFSET -0.00875 1.64542 0.09514
				CHANNELS 3 Zrotation Yrotation Xrotation
				JOINT lowerneck
				{
					OFFSET 0 0 0
					CHANNELS 3 Zrotation Yrotation Xrotation
					JOINT Neck
					{
						OFFSET 0.02257 1.59605 0.00839
						CHANNELS 3 Zrotation Yrotation Xrotation
						JOINT Head
						{
							OFFSET -0.10214 1.57530 -0.23335
							CHANNELS 3 Zrotation Yrotation Xrotation
							End Site
							{
								OFFSET -0.03588 1.60717 -0.08062
							}
						}
					}
				}
				JOINT LeftCollar
				{
					OFFSET 0 0 0
					CHANNELS 3 Zrotation Yrotation Xrotation
					JOINT LeftShoulder
					{
						OFFSET 2.54983 1.10186 0.40078
CHANNELS 3 Zrotation Xrotation Yrotation
						JOINT LeftElbow
						{
OFFSET 0 -4.288400 0.000000
CHANNELS 3 Zrotation Xrotation Yrotation
							JOINT LeftWrist
							{
OFFSET 0 -3.065520 -0.000000
CHANNELS 3 Zrotation Xrotation Yrotation
								JOINT lhand
								{
									OFFSET 0 0 0
CHANNELS 3 Zrotation Xrotation Yrotation
									JOINT LFingers
									{
OFFSET 0 -0.753040 0.000000
CHANNELS 3 Zrotation Xrotation Yrotation
										End Site
										{
OFFSET 0 -0.607120 0.000000
										}
									}
								}
								JOINT LThumb
								{
OFFSET 0 0.000000 0.000000
CHANNELS 3 Zrotation Xrotation Yrotation
									End Site
									{
OFFSET 0 -0.616390 0.616390
									}
								}
							}
						}
					}
				}
				JOINT RightCollar
				{
					OFFSET 0 0 0
					CHANNELS 3 Zrotation Yrotation Xrotation
					JOINT RightShoulder
					{
						OFFSET -2.60909 1.35448 0.21802
CHANNELS 3 Zrotation Xrotation Yrotation
						JOINT RightElbow
						{
OFFSET 0 -4.521720 -0.000000
CHANNELS 3 Zrotation Xrotation Yrotation
							JOINT RightWrist
							{
OFFSET 0 -2.891400 0.000000
CHANNELS 3 Zrotation Xrotation Yrotation
								JOINT rhand
								{
									OFFSET 0 0 0
CHANNELS 3 Zrotation Xrotation Yrotation
									JOINT RFingers
									{
OFFSET 0 -0.680540 0.000000
CHANNELS 3 Zrotation Xrotation Yrotation
										End Site
										{
OFFSET 0 -0.548670 0.000000
										}
									}
								}
								JOINT RThumb
								{
OFFSET 0 0.000000 0.000000
CHANNELS 3 Zrotation Xrotation Yrotation
									End Site
									{
OFFSET 0 -0.557050 0.557050
									}
								}
							}
						}
					}
				}
			}
		}
	}
}
MOTION
Frames: 6
Frame Time: 0.008333333333333333
8.990395 18.522873 18.180388 175.342932 -34.256447 193.107155 0.000000 0.000000 0.000000 -23.092465 -33.456153 0.585786 1.236530 7.051580 19.868305 5.511680 0.671762 -44.968031 12.063487 18.415738 66.188103 0.000000 0.000000 0.000000 27.110777 16.591595 5.303294 -0.605513 -4.980244 13.852302 -3.838461 -18.606351 -46.567511 -11.325365 -18.089853 63.832768 1.941262 3.513769 5.519737 -1.779607 4.589573 -6.625805 -3.599475 1.928059 -9.833918 8.533017 9.847334 -5.266818 -6.775408 12.796152 1.161312 -3.128631 6.290396 2.395454 0.000000 0.000000 0.000000 61.548272 -61.717349 -66.202752 119.013995 -56.562890 84.836375 130.288790 155.352100 -43.014410 0.000000 0.000000 0.000000 -7.125000 0.000000 0.000000 128.540696 65.437597 -117.426640 0.000000 0.000000 0.000000 -90.387864 -27.840314 25.814478 -120.266843 -56.236854 -85.880535 -51.073291 62.976456 48.200987 0.000000 0.000000 0.000000 7.125000 0.000000 0.000000 -99.185136 -86.770111 -102.390459
8.978589 18.710882 18.096602 174.842865 -35.801853 193.731426 0.000000 0.000000 0.000000 -23.108730 -32.585565 -0.235658 1.207692 6.971765 19.631773 5.088406 3.677740 -44.141369 12.189852 18.469747 66.589398 0.000000 0.000000 0.000000 26.497954 15.735754 4.039887 -0.653377 -5.169057 14.391623 -3.658922 -18.185145 -45.574823 -11.597794 -18.213990 64.706499 2.232635 3.344854 5.356448 -2.108100 4.326090 -7.074012 -4.088460 1.731520 -10.210424 8.465403 9.921611 -5.496744 -6.239062 12.891763 1.929109 -2.903409 6.351693 2.652898 0.000000 0.000000 0.000000 59.005885 -61.477971 -68.856147 118.985193 -56.574158 84.813162 130.424364 159.039896 -39.279007 0.000000 0.000000 0.000000 -7.125000 0.000000 0.000000 143.533810 78.880457 -137.525919 0.000000 0.000000 0.000000 -89.651488 -26.276101 26.510060 -121.848379 -55.791810 -87.191169 -48.727153 62.748019 49.100412 0.000000 0.000000 0.000000 7.125000 0.000000 0.000000 -94.597635 -87.998146 -96.594083
8.955771 18.914503 18.047579 174.463130 -37.303819 195.043092 0.000000 0.000000 0.000000 -22.740261 -32.575861 -1.877993 1.178683 6.890396 19.391073 4.802038 5.598684 -43.571309 12.254333 18.496057 66.792743 0.000000 0.000000 0.000000 25.401941 14.506471 1.489543 -0.691404 -5.314943 14.809177 -0.974145 -24.274467 -39.783259 -11.025678 -17.930796 62.844312 2.841458 3.275164 4.501528 -2.281330 4.212441 -7.539312 -4.557140 1.599093 -10.171044 8.730642 9.956800 -5.144263 -6.823118 12.974138 1.828173 -3.161140 6.388815 2.635076 0.000000 0.000000 0.000000 56.117982 -61.605385 -71.167024 117.325394 -56.964925 83.421264 131.875135 168.626708 -32.882078 0.000000 0.000000 0.000000 -7.125000 0.000000 0.000000 151.844379 71.097715 -144.946902 0.000000 0.000000 0.000000 -89.519760 -24.446166 27.035072 -123.089115 -55.426324 -88.215617 -49.443110 64.135376 49.140688 0.000000 0.000000 0.000000 7.125000 0.000000 0.000000 -101.601991 -87.695392 -103.827333
8.943772 19.107841 17.996078 174.169114 -38.932668 196.044280 0.000000 0.000000 0.000000 -22.454067 -32.392121 -3.245123 1.155207 6.823890 19.194672 4.548807 7.144752 -43.143655 12.247452 18.493120 66.770874 0.000000 0.000000 0.000000 24.624666 13.828140 -0.367275 -0.719156 -5.418809 15.107001 1.905543 -30.931576 -33.510377 -10.278245 -17.563037 60.413991 3.195479 3.176353 3.641860 -2.207650 4.078321 -7.718469 -4.605444 1.510220 -9.848875 9.043331 9.967788 -4.662521 -7.980073 13.038043 1.399342 -3.509368 6.399369 2.452123 0.000000 0.000000 0.000000 52.987457 -62.146127 -73.445500 116.624983 -57.131844 82.834337 131.822794 171.737983 -29.794427 0.000000 0.000000 0.000000 -7.125000 0.000000 0.000000 154.072533 67.461457 -146.396722 0.000000 0.000000 0.000000 -89.697693 -22.470917 27.384237 -124.106119 -55.110417 -89.051545 -51.764043 66.450205 48.743217 0.000000 0.000000 0.000000 7.125000 0.000000 0.000000 -112.590364 -86.555017 -115.792671
8.959550 19.269758 17.911517 173.947963 -40.806032 195.955311 0.000000 0.000000 0.000000 -22.585431 -31.230234 -3.493261 1.141139 6.783709 19.076241 4.192488 9.311252 -42.561996 12.184181 18.466910 66.570913 0.000000 0.000000 0.000000 24.790367 14.298314 -0.065669 -0.737054 -5.484646 15.296034 2.656946 -32.139570 -31.031714 -10.114792 -17.473632 59.871094 2.986409 2.942163 3.524517 -1.947818 3.780734 -7.514125 -4.161924 1.413351 -9.610218 9.113627 9.956221 -4.603140 -8.802214 13.047195 1.352002 -3.522306 6.376197 2.318189 0.000000 0.000000 0.000000 49.907102 -62.805588 -75.975050 118.793399 -56.622760 84.653055 128.644742 161.399262 -33.298228 0.000000 0.000000 0.000000 -7.125000 0.000000 0.000000 146.151373 72.309438 -137.682690 0.000000 0.000000 0.000000 -89.627741 -20.461403 27.671707 -125.060136 -54.802955 -89.833097 -53.442824 68.594864 48.548960 0.000000 0.000000 0.000000 7.125000 0.000000 0.000000 -118.253990 -85.693934 -122.122894
8.972639 19.440637 17.843020 174.046733 -42.600106 196.169713 0.000000 0.000000 0.000000 -22.203683 -30.490586 -4.412541 1.135759 6.768211 19.030550 4.195941 7.389741 -41.672829 12.495988 18.592178 67.552105 0.000000 0.000000 0.000000 24.879260 14.554472 -0.591717 -0.740266 -5.496290 15.329519 3.264178 -32.877131 -28.065172 -9.915968 -17.362094 59.206848 3.163311 2.800433 3.149032 -1.709566 3.618286 -7.437197 -3.962618 1.345095 -9.320334 9.118766 9.907558 -4.864438 -9.232384 12.971471 1.289769 -3.642596 6.319585 2.366208 0.000000 0.000000 0.000000 47.924402 -62.616641 -77.308761 118.252977 -56.757585 84.201445 129.983351 170.533043 -27.428100 0.000000 0.000000 0.000000 -7.125000 0.000000 0.000000 153.072634 64.781346 -144.087699 0.000000 0.000000 0.000000 -89.437750 -18.342192 27.796253 -125.734500 -54.576989 -90.383396 -54.460874 70.292256 48.154685 0.000000 0.000000 0.000000 7.125000 0.000000 0.000000 -117.359122 -85.150219 -121.762104
